<?xml version="1.0" encoding="UTF-8"?>
<!DOCTYPE svg PUBLIC "-//W3C//DTD SVG 1.1//EN" "http://www.w3.org/Graphics/SVG/1.1/DTD/svg11.dtd">
<!-- Creator: CorelDRAW X5 -->
<svg xmlns="http://www.w3.org/2000/svg" xml:space="preserve" width="1.9685in" height="2.75591in" style="shape-rendering:geometricPrecision; text-rendering:geometricPrecision; image-rendering:optimizeQuality; fill-rule:evenodd; clip-rule:evenodd"
viewBox="0 0 1969 2756"
 xmlns:xlink="http://www.w3.org/1999/xlink">
 <defs>
  <style type="text/css">
   <![CDATA[
    .fil1 {fill:#52658C}
    .fil0 {fill:#8682AB}
   ]]>
  </style>
    <mask id="id0">
  <linearGradient id="id1" gradientUnits="userSpaceOnUse" x1="230.689" y1="1366.02" x2="1767.81" y2="1457.49">
   <stop offset="0" style="stop-opacity:1; stop-color:white"/>
   <stop offset="0.631373" style="stop-opacity:0.501961; stop-color:white"/>
   <stop offset="1" style="stop-opacity:0; stop-color:white"/>
  </linearGradient>
     <rect style="fill:url(#id1)" x="259" y="617" width="1480" height="1590"/>
    </mask>
 </defs>
 <g id="Layer_x0020_1">
  <metadata id="CorelCorpID_0Corel-Layer"/>
  <g id="_348350696">
   <path class="fil0" style="mask:url(#id0)" d="M994 1649l253 -139 5 -136 -259 143 -361 -214 1 -54 361 164 376 -207 0 398 -376 222 -734 -438 1 -354 734 -416 745 418 -2 206 -743 -411 -548 295 -1 217 549 309zm-549 245l0 -271 183 102 2 67 363 201 555 -326 -1 -401 189 95 -1 411 -740 434 -550 -312z"/>
   <path class="fil1" d="M964 1582l253 -139 5 -136 -259 143 -361 -214 1 -54 361 206 376 -207 0 355 -376 222 -734 -438 1 -354 734 -416 745 418 -2 206 -743 -411 -548 295 -1 217 549 309zm-549 245l0 -271 183 102 2 67 363 201 555 -326 -1 -401 189 95 -1 411 -740 434 -550 -312zm207 -660l342 -192 357 191 -360 194 -339 -194z"/>
  </g>
 </g>
</svg>
